<?xml version="1.0" encoding="UTF-8"?>
<svg width="48px" height="49px" viewBox="0 0 48 49" version="1.1" xmlns="http://www.w3.org/2000/svg" xmlns:xlink="http://www.w3.org/1999/xlink">
    <!-- Generator: sketchtool 42 (36781) - http://www.bohemiancoding.com/sketch -->
    <title>F30E16A5-962B-4169-849A-2D2489FC323F</title>
    <desc>Created with sketchtool.</desc>
    <defs>
        <ellipse id="path-1" cx="24" cy="24.3934426" rx="24" ry="24.3934426"></ellipse>
        <mask id="mask-2" maskContentUnits="userSpaceOnUse" maskUnits="objectBoundingBox" x="0" y="0" width="48" height="48.7868852" fill="white">
            <use xlink:href="#path-1"></use>
        </mask>
    </defs>
    <g id="test-sme" stroke="none" stroke-width="1" fill="none" fill-rule="evenodd">
        <g id="test-sme-2" transform="translate(-833.000000, -1963.000000)">
            <g id="Group-6" transform="translate(833.000000, 1963.000000)">
                <use id="Oval-54-Copy-10" stroke="#74A3C7" mask="url(#mask-2)" stroke-width="2.4" xlink:href="#path-1"></use>
                <g id="Imported-Layers-Copy-15" transform="translate(18.000000, 17.281660)" fill="#74A3C7">
                    <path d="M9.654,0.744058358 C9.654,0.500503255 9.4305,0.500503255 9.252,0.500503255 C8.5605,0.500503255 7.8465,0.478181504 7.133,0.478181504 C6.129,0.478181504 4.6785,0.500503255 3.72,0.810031532 C2.0465,1.3412892 0.8865,2.6468636 0.8865,4.44004424 C0.8865,6.63104808 2.4035,7.87015327 4.545,7.87015327 C4.545,9.3751353 4.7905,8.60032254 5.058,9.33098784 C2.9165,9.33098784 0.0165,10.0611571 0.0165,12.6728019 C0.0165,15.1296826 2.47,16.0369378 4.59,16.0369378 C7.0435,16.0369378 9.654,14.8638058 9.654,12.0750751 C9.654,9.57454294 6.8425,8.48970586 6.8425,7.75953659 C6.8425,6.96289811 9.007,6.60872633 9.007,3.88646482 C9.007,3.02335713 8.761,2.027311 8.0255,1.51837509 C8.516,1.45190587 9.654,1.45190587 9.654,0.744058358 L9.654,0.744058358 Z M3.117,3.35520715 C3.117,2.46977771 3.4965,1.47422763 4.545,1.47422763 C5.9505,1.47422763 6.642,3.35520715 6.642,4.50651345 C6.642,5.41376861 6.285,6.38749298 5.2145,6.38749298 C3.809,6.38749298 3.117,4.50651345 3.117,3.35520715 L3.117,3.35520715 Z M7.869,12.1415443 C7.869,13.5577354 6.129,14.3107224 4.902,14.3107224 C3.6975,14.3107224 2.136,13.6911698 2.136,12.2744827 C2.136,10.747675 3.809,10.1499481 5.103,10.1499481 C6.285,10.1499481 7.869,10.747675 7.869,12.1415443 L7.869,12.1415443 Z" id="Fill-1"></path>
                    <polyline id="Fill-2" points="15.2755 3.02335713 15.2755 0.810031532 13.781 0.810031532 13.781 3.02335713 11.55 3.02335713 11.55 4.4841917 13.781 4.4841917 13.781 6.69702126 15.2755 6.69702126 15.2755 4.4841917 17.5065 4.4841917 17.5065 3.02335713 15.2755 3.02335713"></polyline>
                </g>
            </g>
        </g>
    </g>
</svg>