<?xml version="1.0" encoding="UTF-8"?>
<svg width="48px" height="49px" viewBox="0 0 48 49" version="1.1" xmlns="http://www.w3.org/2000/svg" xmlns:xlink="http://www.w3.org/1999/xlink">
    <!-- Generator: sketchtool 42 (36781) - http://www.bohemiancoding.com/sketch -->
    <title>3E839EAD-4821-4C06-B0F7-75F18DA357F9</title>
    <desc>Created with sketchtool.</desc>
    <defs>
        <ellipse id="path-1" cx="24" cy="24.3934426" rx="24" ry="24.3934426"></ellipse>
        <mask id="mask-2" maskContentUnits="userSpaceOnUse" maskUnits="objectBoundingBox" x="0" y="0" width="48" height="48.7868852" fill="white">
            <use xlink:href="#path-1"></use>
        </mask>
    </defs>
    <g id="test-sme" stroke="none" stroke-width="1" fill="none" fill-rule="evenodd">
        <g id="test-sme-2" transform="translate(-755.000000, -1963.000000)">
            <g id="Group-5" transform="translate(755.000000, 1963.000000)">
                <use id="Oval-54-Copy-9" stroke="#74A3C7" mask="url(#mask-2)" stroke-width="2.4" xlink:href="#path-1"></use>
                <g id="Imported-Layers-Copy-14" transform="translate(19.000000, 16.262295)" fill="#74A3C7">
                    <path d="M8.10333333,9.20226575 C7.13221958,9.66879034 6.09481481,9.93251769 5.01338095,9.93251769 C3.86565608,9.93251769 2.98260053,9.64832873 1.96745767,9.20226575 C1.76858466,9.12087403 1.57020635,9.05994392 1.34956614,9.05994392 C0.599092593,9.05994392 0.0252301587,9.66879034 0.0252301587,10.3381122 C0.0252301587,11.6162804 2.21035979,12.1032666 3.26953175,12.3060638 L0.687150794,14.760547 C0.444248677,15.0042675 0.289899471,15.3289249 0.289899471,15.6535824 C0.289899471,16.3433658 0.863761905,16.9317506 1.61423545,16.9317506 C1.96745767,16.9317506 2.32018519,16.8098904 2.56358201,16.5666247 L5.03564286,14.2130854 L7.5077037,16.5666247 C7.75011111,16.8098904 8.10333333,16.9317506 8.45655556,16.9317506 C9.2070291,16.9317506 9.78138624,16.3229042 9.78138624,15.6535824 C9.78138624,15.3289249 9.62654233,15.0042675 9.38364021,14.760547 L6.80125926,12.3060638 C7.86092593,12.1032666 10.0460556,11.5753572 10.0460556,10.3176506 C10.0460556,9.64832873 9.47219312,9.03993701 8.72171958,9.03993701 C8.50107937,9.03993701 8.30220635,9.10086713 8.10333333,9.20226575" id="Fill-1"></path>
                    <path d="M5.03564286,0.336479724 C2.4527672,0.336479724 0.510539683,2.34489991 0.510539683,4.65797066 C0.510539683,6.97058671 2.4527672,8.9790069 5.03564286,8.9790069 C7.6175291,8.9790069 9.56025132,6.97058671 9.56025132,4.65797066 C9.56025132,2.34489991 7.6175291,0.336479724 5.03564286,0.336479724 L5.03564286,0.336479724 Z M5.03564286,6.44313201 C3.97597619,6.44313201 3.15921164,5.61102675 3.15921164,4.65797066 C3.15921164,3.70445988 3.97597619,2.87235462 5.03564286,2.87235462 C6.09481481,2.87235462 6.91157937,3.70445988 6.91157937,4.65797066 C6.91157937,5.61102675 6.09481481,6.44313201 5.03564286,6.44313201 L5.03564286,6.44313201 Z" id="Fill-2"></path>
                </g>
            </g>
        </g>
    </g>
</svg>