<?xml version="1.0" encoding="UTF-8" standalone="no"?>
<svg width="16px" height="16px" viewBox="0 0 16 16" version="1.1" xmlns="http://www.w3.org/2000/svg" xmlns:xlink="http://www.w3.org/1999/xlink">
    <!-- Generator: Sketch 3.8.3 (29802) - http://www.bohemiancoding.com/sketch -->
    <title>safari-pinned-tab</title>
    <desc>Created with Sketch.</desc>
    <defs></defs>
    <g id="Page-1" stroke="none" stroke-width="1" fill="none" fill-rule="evenodd">
        <g id="safari-pinned-tab" fill="#000000">
            <g id="Page-1" transform="translate(1.000000, 0.000000)">
                <g id="Group-6" transform="translate(0.000000, 0.103469)">
                    <path d="M12.244575,6.11101204 L12.244575,6.50169722 L12.244575,10.2854565 C12.244575,11.0409596 11.864825,11.5841725 11.3512,11.9142034 L7.099575,14.0433485 L2.7167,11.9142034 C2.203075,11.5841725 1.744575,11.0409596 1.744575,10.2854565 L1.744575,6.50169722 L1.744575,6.11101204 L1.744575,1.68057068 L12.244575,1.68057068 L12.244575,6.11101204 Z M0.869575,0.78859537 L0.869575,10.3006201 C0.869575,11.460188 1.41995,12.2825892 2.2407,12.7678238 L5.8912,14.5963731 L7.03045,15.1618855 L8.161825,14.5963731 L11.803575,12.7678238 C12.624325,12.2825892 13.119575,11.460188 13.119575,10.3006201 L13.119575,0.78859537 L0.869575,0.78859537 Z" id="Fill-2"></path>
                    <polygon id="Fill-4" points="10.057775 6.02984228 10.057775 3.98721883 4.0474 3.98721883 4.0474 6.02984228 6.053775 6.02984228 6.053775 11.135509 8.054025 11.135509 8.054025 6.02984228"></polygon>
                </g>
            </g>
        </g>
    </g>
</svg>