<?xml version="1.0" encoding="UTF-8"?>
<svg width="48px" height="49px" viewBox="0 0 48 49" version="1.1" xmlns="http://www.w3.org/2000/svg" xmlns:xlink="http://www.w3.org/1999/xlink">
    <!-- Generator: sketchtool 42 (36781) - http://www.bohemiancoding.com/sketch -->
    <title>57C1DE34-1C2B-4977-8D26-4631440F4D34</title>
    <desc>Created with sketchtool.</desc>
    <defs>
        <ellipse id="path-1" cx="24" cy="24.3934426" rx="24" ry="24.3934426"></ellipse>
        <mask id="mask-2" maskContentUnits="userSpaceOnUse" maskUnits="objectBoundingBox" x="0" y="0" width="48" height="48.7868852" fill="white">
            <use xlink:href="#path-1"></use>
        </mask>
    </defs>
    <g id="test-sme" stroke="none" stroke-width="1" fill="none" fill-rule="evenodd">
        <g id="test-sme-2" transform="translate(-678.000000, -1963.000000)">
            <g id="Group-4" transform="translate(678.000000, 1963.000000)">
                <use id="Oval-54-Copy-8" stroke="#74A3C7" mask="url(#mask-2)" stroke-width="2.4" xlink:href="#path-1"></use>
                <path d="M30.7584286,20.307576 C31.4734,19.9212063 32.0149714,19.2705743 32.2753143,18.5388412 C31.6030857,18.9047077 30.8667429,19.16897 30.0862,19.3115806 C29.4363143,18.6609486 28.5260857,18.295082 27.594,18.295082 C25.6875714,18.295082 24.1488286,19.7385008 24.1488286,21.5272832 C24.1488286,21.7710424 24.1706857,22.0152572 24.2352857,22.2590164 C21.4827429,22.1168615 18.9040857,20.8966987 17.1487143,18.8846603 C16.8456286,19.3721786 16.6936,19.9417094 16.6936,20.5107846 C16.6936,21.5883369 17.2570286,22.5843324 18.2323429,23.1939582 C17.6689143,23.1739107 17.1487143,23.0317558 16.6722286,22.787541 L16.6722286,22.8280916 C16.6285143,24.3526116 17.8204571,25.6739231 19.4242857,25.9791916 C19.1207143,26.0607484 18.8176286,26.1008434 18.5140571,26.1008434 C18.2974286,26.1008434 18.0808,26.0807959 17.8641714,26.0402453 C18.3192857,27.3410537 19.6190571,28.255948 21.0713429,28.2759955 C19.8580286,29.1708423 18.3625143,29.6583607 16.8024,29.6583607 C16.5420571,29.6583607 16.2603429,29.6383132 16,29.6178101 C17.5606,30.5527518 19.4024286,31.0612289 21.2661143,31.0612289 C25.2319714,31.0612289 28.5693143,29.0487349 30.1731429,25.6333725 C30.7147143,24.4546716 31.0401429,23.1739107 31.0401429,21.8931498 C31.0401429,21.7509949 31.0401429,21.6083844 31.0182857,21.4662295 C31.6900286,21.0192617 32.2753143,20.4497309 32.7304286,19.7990989 C32.1019143,20.0633612 31.4520286,20.2465223 30.7584286,20.307576 Z" id="Imported-Layers-Copy-13" fill="#74A3C7"></path>
            </g>
        </g>
    </g>
</svg>