<?xml version="1.0" encoding="UTF-8"?>
<svg width="48px" height="49px" viewBox="0 0 48 49" version="1.1" xmlns="http://www.w3.org/2000/svg" xmlns:xlink="http://www.w3.org/1999/xlink">
    <!-- Generator: sketchtool 42 (36781) - http://www.bohemiancoding.com/sketch -->
    <title>37804432-0119-42EE-BDFA-4C2293B6A2E1</title>
    <desc>Created with sketchtool.</desc>
    <defs>
        <ellipse id="path-1" cx="24" cy="24.3934426" rx="24" ry="24.3934426"></ellipse>
        <mask id="mask-2" maskContentUnits="userSpaceOnUse" maskUnits="objectBoundingBox" x="0" y="0" width="48" height="48.7868852" fill="white">
            <use xlink:href="#path-1"></use>
        </mask>
    </defs>
    <g id="test-sme" stroke="none" stroke-width="1" fill="none" fill-rule="evenodd">
        <g id="test-sme-2" transform="translate(-911.000000, -1963.000000)">
            <g id="Group-7" transform="translate(911.000000, 1963.000000)">
                <use id="Oval-54-Copy-11" stroke="#74A3C7" mask="url(#mask-2)" stroke-width="2.4" xlink:href="#path-1"></use>
                <g id="Imported-Layers-Copy-18" transform="translate(15.000000, 18.295082)" fill="#74A3C7">
                    <path d="M17.8068563,2.63410164 C17.8068563,2.63410164 17.6312375,1.44006129 17.0923812,0.914245195 C16.4089443,0.224104152 15.6428798,0.220694498 15.2915718,0.180287558 C12.7765513,0.00502118151 9.00388856,0.00502118151 9.00388856,0.00502118151 L8.99607625,0.00502118151 C8.99607625,0.00502118151 5.22350147,0.00502118151 2.70839296,0.180287558 C2.35706745,0.220694498 1.59126686,0.224104152 0.907583578,0.914245195 C0.368727273,1.44006129 0.193372434,2.63410164 0.193372434,2.63410164 C0.193372434,2.63410164 0.0136363636,4.03628354 0.0136363636,5.43848241 L0.0136363636,6.75303112 C0.0136363636,8.15519606 0.193372434,9.55737796 0.193372434,9.55737796 C0.193372434,9.55737796 0.368727273,10.7514353 0.907583578,11.2772514 C1.59126686,11.9673755 2.48934897,11.9455605 2.88932551,12.0178926 C4.32717889,12.1508182 9,12.1919546 9,12.1919546 C9,12.1919546 12.7765513,12.1864584 15.2915718,12.011192 C15.6428798,11.9708021 16.4089443,11.9673755 17.0923812,11.2772514 C17.6312375,10.7514353 17.8068563,9.55737796 17.8068563,9.55737796 C17.8068563,9.55737796 17.986346,8.15519606 17.986346,6.75303112 L17.986346,5.43848241 C17.986346,4.03628354 17.8068563,2.63410164 17.8068563,2.63410164 L17.8068563,2.63410164 Z M7.14452199,8.34601792 L7.14369501,3.47750747 L12,5.92024442 L7.14452199,8.34601792 L7.14452199,8.34601792 Z" id="Fill-2"></path>
                </g>
            </g>
        </g>
    </g>
</svg>